<?xml version="1.0" standalone="no"?>
<!DOCTYPE svg PUBLIC "-//W3C//DTD SVG 1.1//EN" "http://www.w3.org/Graphics/SVG/1.1/DTD/svg11.dtd" >
<svg xmlns="http://www.w3.org/2000/svg">
<metadata>Generated by IcoMoon</metadata>
<defs>
<font id="icomoon" horiz-adv-x="1024">
<font-face units-per-em="1024" ascent="960" descent="-64" />
<missing-glyph horiz-adv-x="1024" />
<glyph unicode="&#x20;" horiz-adv-x="512" d="" />
<glyph unicode="&#xe900;" glyph-name="icon-map" d="M509.724 868.978c56.889 0 106.951-13.653 154.738-40.96s84.196-65.991 111.502-113.778c27.307-47.787 40.96-97.849 40.96-152.462s-15.929-116.053-50.062-182.044c-34.133-50.062-70.542-102.4-113.778-157.013s-77.369-95.573-102.4-125.156l-38.684-43.236c-4.551 4.551-11.378 9.102-18.204 18.204-6.827 6.827-22.756 22.756-45.511 47.787-22.756 22.756-45.511 47.787-65.991 72.818s-45.511 54.613-70.542 91.022c-27.307 36.409-50.062 70.542-68.267 102.4-29.582 61.44-43.236 120.604-43.236 175.218s13.653 106.951 40.96 154.738c27.307 47.787 65.991 86.471 113.778 113.778 47.787 25.031 100.124 38.684 154.738 38.684zM509.724 404.764c47.787 0 91.022 15.929 125.156 50.062s52.338 75.093 52.338 120.604c0 47.787-18.204 88.747-52.338 120.604-34.133 34.133-75.093 50.062-125.156 50.062-47.787 0-91.022-15.929-125.156-50.062s-50.062-72.818-50.062-120.604c0-47.787 18.204-88.747 52.338-120.604 31.858-34.133 75.093-50.062 122.88-50.062z" />
<glyph unicode="&#xe901;" glyph-name="icon-arrow-down" d="M118.329 559.502l154.738 150.187 241.209-234.382 241.209 234.382 154.738-150.187-395.947-384.569-395.947 384.569z" />
<glyph unicode="&#xe902;" glyph-name="icon-arrow-left" d="M227.556 445.724l402.773 393.671 163.84-159.289-241.209-234.382 241.209-234.382-163.84-159.289-402.773 393.671z" />
<glyph unicode="&#xe903;" glyph-name="icon-arrow-right" d="M391.396 49.778l-163.84 159.289 241.209 234.382-241.209 236.658 163.84 159.289 405.049-393.671-405.049-395.947z" />
<glyph unicode="&#xe904;" glyph-name="icon-arrow-up" d="M514.276 409.316l-241.209-234.382-154.738 150.187 395.947 384.569 395.947-384.569-154.738-150.187-241.209 234.382z" />
<glyph unicode="&#xe905;" glyph-name="icon-asce" d="M409.6 250.027h134.258l-202.524-200.249-204.8 200.249h136.533v600.747h136.533v-600.747zM819.2 850.773v-332.231h-68.267v65.991h-68.267v-65.991h-68.267v332.231h204.8zM614.4 384.284h204.8v-134.258h-68.267v-65.991h-68.267v65.991h68.267v65.991h-136.533v68.267zM682.667 118.044h136.533v-68.267h-204.8v134.258h68.267v-65.991zM750.933 782.507h-68.267v-134.258h68.267v134.258z" />
<glyph unicode="&#xe906;" glyph-name="icon-bookmark" d="M204.8 814.364c0 9.102 2.276 15.929 9.102 22.756s13.653 9.102 25.031 9.102h546.133c9.102 0 18.204-2.276 25.031-9.102 4.551-6.827 9.102-13.653 9.102-22.756v-766.862l-307.2 295.822-307.2-295.822v766.862z" />
<glyph unicode="&#xe907;" glyph-name="icon-calender" d="M136.533 650.524v100.124c0 9.102 2.276 18.204 9.102 22.756 6.827 6.827 13.653 9.102 25.031 9.102h102.4v68.267h68.267v-65.991h341.333v65.991h68.267v-65.991h102.4c9.102 0 18.204-2.276 25.031-9.102s9.102-13.653 9.102-22.756v-100.124h-750.933zM887.467 582.258v-498.347c0-9.102-2.276-15.929-9.102-22.756s-13.653-9.102-25.031-9.102h-682.667c-9.102 0-18.204 2.276-25.031 9.102s-9.102 13.653-9.102 22.756v498.347h750.933zM204.8 384.284h68.267v65.991h-68.267v-65.991zM204.8 250.027h68.267v65.991h-68.267v-65.991zM204.8 118.044h68.267v65.991h-68.267v-65.991zM341.333 384.284h68.267v65.991h-68.267v-65.991zM341.333 250.027h68.267v65.991h-68.267v-65.991zM341.333 118.044h68.267v65.991h-68.267v-65.991zM477.867 384.284h68.267v65.991h-68.267v-65.991zM477.867 250.027h68.267v65.991h-68.267v-65.991zM477.867 118.044h68.267v65.991h-68.267v-65.991zM614.4 384.284h68.267v65.991h-68.267v-65.991zM614.4 250.027h68.267v65.991h-68.267v-65.991zM614.4 118.044h68.267v65.991h-68.267v-65.991zM750.933 384.284h68.267v65.991h-68.267v-65.991zM750.933 250.027h68.267v65.991h-68.267v-65.991zM750.933 118.044h68.267v65.991h-68.267v-65.991z" />
<glyph unicode="&#xe908;" glyph-name="icon-camera" d="M889.742 138.524c-13.653-13.653-29.582-20.48-47.787-20.48h-682.667c-18.204 0-34.133 6.827-47.787 20.48s-20.48 29.582-20.48 47.787v398.222c0 18.204 6.827 34.133 20.48 47.787s29.582 20.48 47.787 20.48h102.4l9.102 13.653c4.551 9.102 13.653 20.48 22.756 34.133 11.378 13.653 22.756 27.307 36.409 38.684 13.653 13.653 29.582 25.031 47.787 34.133s36.409 13.653 56.889 13.653h136.533c18.204 0 38.684-4.551 56.889-13.653s34.133-20.48 47.787-31.858c11.378-11.378 25.031-25.031 36.409-40.96s18.204-25.031 22.756-31.858c4.551-6.827 6.827-11.378 6.827-13.653h100.124c18.204 0 34.133-6.827 47.787-20.48s20.48-29.582 20.48-47.787v-400.498c0-18.204-6.827-34.133-20.48-47.787zM500.622 548.124c-45.511 0-84.196-15.929-118.329-47.787-31.858-31.858-50.062-70.542-50.062-113.778s15.929-81.92 50.062-113.778c31.858-31.858 72.818-47.787 118.329-47.787s84.196 15.929 118.329 47.787c31.858 31.858 50.062 70.542 50.062 113.778s-15.929 81.92-50.062 113.778c-34.133 31.858-72.818 47.787-118.329 47.787zM500.622 313.742c-20.48 0-36.409 6.827-50.062 20.48s-20.48 29.582-20.48 50.062c0 20.48 6.827 36.409 20.48 50.062s31.858 20.48 50.062 20.48c20.48 0 36.409-6.827 50.062-20.48s20.48-29.582 20.48-50.062c0-20.48-6.827-36.409-20.48-50.062s-31.858-20.48-50.062-20.48zM773.689 584.533h-68.267v-65.991h68.267v65.991z" />
<glyph unicode="&#xe909;" glyph-name="icon-check-gray" d="M91.022 377.458l145.636 154.738 141.084-150.187 411.876 441.458 145.636-154.738-559.787-598.471-284.444 307.2z" />
<glyph unicode="&#xe90a;" glyph-name="icon-check-lt-blue" d="M68.267 416.142l145.636 141.084 141.084-138.809 411.876 405.049 145.636-141.084-557.511-546.133-286.72 279.893z" />
<glyph unicode="&#xe90b;" glyph-name="icon-desc" d="M455.111 247.751h134.258l-202.524-200.249-204.8 200.249h136.533v598.471h136.533v-598.471zM864.711 846.222v-134.258h-68.267v-65.991h-68.267v65.991h68.267v68.267h-136.533v65.991h204.8zM728.178 579.982h136.533v-65.991h-204.8v134.258h68.267v-68.267zM659.911 382.009h204.8v-332.231h-68.267v65.991h-68.267v-65.991h-68.267v332.231zM728.178 181.76h68.267v134.258h-68.267v-134.258z" />
<glyph unicode="&#xe90c;" glyph-name="icon-email" d="M500.622 384.284l-409.6 400.498h819.2l-409.6-400.498zM91.022 650.524v-400.498l204.8 200.249-204.8 200.249zM500.622 252.302l-136.533 134.258-273.067-268.516h819.2l-273.067 266.24-136.533-131.982zM705.422 452.551l204.8-200.249v398.222l-204.8-197.973z" />
<glyph unicode="&#xe90d;" glyph-name="icon-graph" d="M273.067 47.502h-136.533v200.249h136.533v-200.249zM477.867 382.009h-136.533v-332.231h136.533v332.231zM682.667 579.982h-136.533v-532.48h136.533v532.48zM887.467 846.222h-136.533v-798.72h136.533v798.72z" />
<glyph unicode="&#xe90e;" glyph-name="icon-home" d="M955.733 427.52h-136.533v-400.498h-204.8v266.24h-204.8v-266.24h-204.8v400.498h-136.533l446.009 427.804 441.458-427.804z" />
<glyph unicode="&#xe90f;" glyph-name="icon-hour-glass" d="M750.933 868.978h-500.622l159.289-423.253-159.289-423.253h500.622l-138.809 423.253 138.809 423.253zM682.667 93.013h-341.333l172.942 291.271 86.471-145.636 81.92-145.636z" />
<glyph unicode="&#xe910;" glyph-name="icon-menu" d="M68.267 855.324h864.711v-204.8h-864.711v204.8zM68.267 554.951h864.711v-204.8h-864.711v204.8zM68.267 254.578h864.711v-204.8h-864.711v204.8z" />
<glyph unicode="&#xe911;" glyph-name="icon-phone" d="M250.311 113.493v634.88c0 9.102 6.827 20.48 20.48 29.582 13.653 11.378 31.858 22.756 54.613 31.858s52.338 18.204 88.747 25.031c34.133 9.102 72.818 11.378 111.502 11.378s75.093-2.276 111.502-9.102c34.133-6.827 63.716-15.929 86.471-25.031s40.96-20.48 54.613-31.858c11.378-11.378 18.204-22.756 18.204-31.858v-634.88c0-18.204-6.827-34.133-20.48-47.787s-29.582-20.48-47.787-20.48h-409.6c-18.204 0-34.133 6.827-47.787 20.48-13.653 15.929-20.48 29.582-20.48 47.787zM728.178 714.24h-409.6v-466.489h409.6v466.489zM473.316 99.84c13.653-13.653 29.582-20.48 50.062-20.48s36.409 6.827 50.062 20.48c13.653 13.653 20.48 29.582 20.48 50.062 0 18.204-6.827 36.409-20.48 50.062s-29.582 20.48-50.062 20.48c-20.48 0-36.409-6.827-50.062-20.48s-20.48-29.582-20.48-50.062c-2.276-20.48 4.551-36.409 20.48-50.062z" />
<glyph unicode="&#xe912;" glyph-name="icon-report" d="M887.467 846.222v-798.72h-750.933v798.72h750.933zM819.2 714.24h-614.4v-598.471h614.4v598.471zM341.333 648.249h-68.267v-65.991h68.267v65.991zM341.333 513.991h-68.267v-65.991h68.267v65.991zM341.333 382.009h-68.267v-65.991h68.267v65.991zM341.333 247.751h-68.267v-65.991h68.267v65.991zM750.933 648.249h-341.333v-65.991h341.333v65.991zM750.933 513.991h-341.333v-65.991h341.333v65.991zM750.933 382.009h-341.333v-65.991h341.333v65.991zM750.933 181.76h-341.333v65.991h341.333v-65.991z" />
<glyph unicode="&#xe913;" glyph-name="icon-search" d="M700.871 350.151l204.8-200.249c2.276-4.551 4.551-6.827 4.551-11.378s-2.276-9.102-4.551-11.378l-75.093-72.818c-4.551-2.276-6.827-4.551-11.378-4.551s-9.102 2.276-11.378 4.551l-204.8 200.249c-54.613-34.133-113.778-52.338-177.493-52.338-91.022 0-168.391 31.858-234.382 95.573-63.716 63.716-97.849 138.809-97.849 227.556s31.858 163.84 97.849 227.556c63.716 63.716 141.084 93.298 232.107 93.298s168.391-31.858 234.382-95.573c63.716-63.716 97.849-138.809 97.849-227.556-2.276-61.44-20.48-118.329-54.613-172.942zM263.964 680.107c-43.236-43.236-65.991-95.573-65.991-154.738 0-61.44 22.756-111.502 65.991-154.738s97.849-63.716 159.289-63.716c61.44 0 116.053 20.48 159.289 63.716s65.991 95.573 65.991 154.738c0 61.44-22.756 113.778-65.991 154.738-43.236 43.236-97.849 63.716-159.289 63.716-63.716 0-116.053-20.48-159.289-63.716z" />
<glyph unicode="&#xe914;" glyph-name="icon-send" d="M894.293 850.773v-719.076l-323.129 182.044-213.902-263.964v277.618h-266.24l803.271 523.378zM871.538 816.64l-459.662-475.591v-150.187l459.662 625.778z" />
<glyph unicode="&#xe915;" glyph-name="icon-settings" d="M425.529 179.484c-22.756 6.827-43.236 13.653-63.716 25.031l-4.551 2.276-91.022-54.613c-27.307 20.48-50.062 43.236-70.542 70.542l54.613 88.747-2.276 2.276c-11.378 20.48-20.48 40.96-25.031 61.44l-2.276 4.551-102.4 25.031c-4.551 20.48-4.551 36.409-4.551 50.062 0 11.378 0 27.307 2.276 50.062l102.4 25.031 2.276 4.551c6.827 20.48 13.653 40.96 25.031 61.44l2.276 2.276-52.338 88.747c20.48 25.031 45.511 50.062 70.542 70.542l91.022-54.613 4.551 2.276c20.48 11.378 40.96 20.48 63.716 25.031h4.551l25.031 104.676c20.48 2.276 38.684 2.276 50.062 2.276 15.929 0 31.858 0 50.062-2.276l25.031-100.124h4.551c22.756-6.827 43.236-15.929 63.716-25.031l4.551-2.276 91.022 54.613c27.307-20.48 50.062-43.236 70.542-70.542l-54.613-88.747 2.276-2.276c11.378-18.204 18.204-38.684 27.307-61.44v-4.551l104.676-25.031c2.276-20.48 4.551-36.409 4.551-47.787 0-15.929-2.276-31.858-4.551-50.062l-104.676-25.031v-4.551c-6.827-22.756-15.929-43.236-27.307-61.44l-2.276-2.276 54.613-88.747c-22.756-27.307-45.511-50.062-70.542-70.542l-91.022 54.613-4.551-2.276c-20.48-11.378-43.236-20.48-63.716-25.031l-4.551-2.276-25.031-100.124c-20.48-2.276-38.684-2.276-50.062-2.276-15.929 0-31.858 0-50.062 2.276l-25.031 100.124-4.551-4.551zM357.262 454.827c0-38.684 13.653-72.818 43.236-100.124s63.716-40.96 104.676-40.96c40.96 0 75.093 13.653 104.676 40.96s43.236 61.44 43.236 100.124c0 38.684-13.653 72.818-43.236 100.124s-63.716 40.96-104.676 40.96c-40.96 0-75.093-13.653-104.676-40.96-27.307-27.307-43.236-59.164-43.236-100.124z" />
<glyph unicode="&#xe916;" glyph-name="icon-trash" d="M682.667 739.271h188.871c4.551 0 9.102-2.276 11.378-4.551s4.551-6.827 4.551-11.378v-34.133c0-4.551-2.276-9.102-4.551-11.378s-6.827-4.551-11.378-4.551h-719.076c-4.551 0-9.102 2.276-11.378 4.551-4.551 2.276-4.551 4.551-4.551 11.378v34.133c0 2.276 0 6.827 4.551 9.102s6.827 4.551 11.378 4.551h188.871v68.267c0 18.204 6.827 34.133 20.48 47.787s29.582 20.48 47.787 20.48h204.8c18.204 0 34.133-6.827 47.787-20.48s20.48-29.582 20.48-47.787v-65.991zM204.8 605.013h614.4v-532.48c0-18.204-6.827-34.133-20.48-47.787s-29.582-20.48-47.787-20.48h-477.867c-18.204 0-34.133 6.827-47.787 20.48s-20.48 29.582-20.48 47.787v532.48zM273.067 72.533h68.267v466.489h-68.267v-466.489zM614.4 739.271v65.991h-204.8v-65.991h204.8zM409.6 72.533h68.267v466.489h-68.267v-466.489zM546.133 72.533h68.267v466.489h-68.267v-466.489zM682.667 72.533h68.267v466.489h-68.267v-466.489z" />
<glyph unicode="&#xe917;" glyph-name="icon-x" d="M696.32 120.32l-193.422 188.871-193.422-188.871-145.636 141.084 193.422 188.871-193.422 188.871 147.911 138.809 193.422-188.871 191.147 188.871 145.636-141.084-193.422-188.871 193.422-188.871-145.636-138.809z" />
</font>
</defs>
</svg>
